<?xml version="1.0" encoding="UTF-8" standalone="no"?>
<!-- Created with Inkscape (http://www.inkscape.org/) -->

<svg
   version="1.1"
   id="svg824"
   xml:space="preserve"
   width="1056"
   height="816"
   viewBox="0 0 1056 816"
   sodipodi:docname="EXODUS_Logo.svg"
   inkscape:version="1.1.2 (b8e25be833, 2022-02-05)"
   xmlns:inkscape="http://www.inkscape.org/namespaces/inkscape"
   xmlns:sodipodi="http://sodipodi.sourceforge.net/DTD/sodipodi-0.dtd"
   xmlns="http://www.w3.org/2000/svg"
   xmlns:svg="http://www.w3.org/2000/svg"><defs
     id="defs828"><clipPath
       clipPathUnits="userSpaceOnUse"
       id="clipPath842"><path
         d="M 0,612 H 792 V 0 H 0 Z"
         id="path840" /></clipPath></defs><sodipodi:namedview
     id="namedview826"
     pagecolor="#ffffff"
     bordercolor="#666666"
     borderopacity="1.0"
     inkscape:pageshadow="2"
     inkscape:pageopacity="0.0"
     inkscape:pagecheckerboard="0"
     showgrid="false"
     inkscape:zoom="2"
     inkscape:cx="453"
     inkscape:cy="374.5"
     inkscape:window-width="2560"
     inkscape:window-height="1369"
     inkscape:window-x="-8"
     inkscape:window-y="-8"
     inkscape:window-maximized="1"
     inkscape:current-layer="g830" /><g
     id="g830"
     inkscape:groupmode="layer"
     inkscape:label="EXODUS_Logo"
     transform="matrix(1.3333333,0,0,-1.3333333,0,816)"><g
       id="g832"
       transform="translate(138.2051,275.1436)"><path
         d="M 0,0 V 76.416 H 50.063 V 67.938 H 9.51 V 43.307 H 49.265 V 34.829 H 9.51 V 8.478 H 50.063 V 0 Z"
         style="fill:#3f3f3f;fill-opacity:1;fill-rule:nonzero;stroke:none"
         id="path834" /></g><g
       id="g836"><g
         id="g838"
         clip-path="url(#clipPath842)"><g
           id="g844"
           transform="translate(379.3008,313.2939)"><path
             d="m 0,0 c 0,17.874 -11.113,31.048 -28.181,31.048 -17.186,0 -28.07,-13.174 -28.07,-31.048 0,-17.757 10.884,-31.048 28.07,-31.048 C -11.113,-31.048 0,-17.757 0,0 m -66.104,0 c 0,22.57 15.353,39.526 37.923,39.526 C -5.613,39.526 9.854,22.57 9.854,0 c 0,-22.569 -15.467,-39.525 -38.035,-39.525 -22.57,0 -37.923,16.956 -37.923,39.525"
             style="fill:#3f3f3f;fill-opacity:1;fill-rule:nonzero;stroke:none"
             id="path846" /></g><g
           id="g848"
           transform="translate(471.2275,313.2939)"><path
             d="m 0,0 c 0,16.499 -10.427,29.788 -29.331,29.788 h -16.612 v -59.461 h 16.612 C -10.768,-29.673 0,-16.382 0,0 m -55.452,-38.15 v 76.416 h 26.121 C -5.5,38.266 9.851,21.654 9.851,0 9.851,-21.769 -5.5,-38.15 -29.331,-38.15 Z"
             style="fill:#3f3f3f;fill-opacity:1;fill-rule:nonzero;stroke:none"
             id="path850" /></g><g
           id="g852"
           transform="translate(507.8154,304.8164)"><path
             d="M 0,0 V 46.743 H 9.623 V 0.232 c 0,-13.978 7.446,-22.802 21.538,-22.802 14.093,0 21.652,8.824 21.652,22.802 v 46.511 h 9.624 V 0.113 C 62.437,-18.9 51.896,-31.048 31.161,-31.048 10.54,-31.048 0,-18.786 0,0"
             style="fill:#3f3f3f;fill-opacity:1;fill-rule:nonzero;stroke:none"
             id="path854" /></g><g
           id="g856"
           transform="translate(596.2852,285.916)"><path
             d="M 0,0 5.728,7.331 C 10.651,1.603 18.901,-3.67 29.67,-3.67 c 13.634,0 17.986,7.336 17.986,13.291 0,19.706 -45.253,8.705 -45.253,35.974 0,12.601 11.228,21.309 26.352,21.309 11.571,0 20.621,-4.009 27.036,-10.77 l -5.728,-6.988 c -5.727,6.416 -13.75,9.166 -22.112,9.166 -9.05,0 -15.695,-4.926 -15.695,-12.145 0,-17.184 45.254,-7.334 45.254,-35.858 0,-10.996 -7.563,-22.456 -28.184,-22.456 C 16.151,-12.147 6.299,-7.103 0,0"
             style="fill:#3f3f3f;fill-opacity:1;fill-rule:nonzero;stroke:none"
             id="path858" /></g><g
           id="g860"
           transform="translate(291.5225,344.2627)"><path
             d="m 0,0 -6.628,6.629 -48.481,-48.494 -0.007,0.005 -20.889,-20.888 6.628,-6.629 31.374,31.372 31.375,-31.372 6.628,6.629 -31.372,31.374 z"
             style="fill:#3f3f3f;fill-opacity:1;fill-rule:nonzero;stroke:none"
             id="path862" /></g><g
           id="g864"
           transform="translate(247.1992,325.8379)"><path
             d="m 0,0 -25.049,25.049 -6.63,-6.631 25.048,-25.046 z"
             style="fill:#dd4542;fill-opacity:1;fill-rule:nonzero;stroke:none"
             id="path866" /></g><path
           d="m 218.352,243.195 h 2.565 v -16.293 h -2.565 z"
           style="fill:#3f3f3f;fill-opacity:1;fill-rule:nonzero;stroke:none"
           id="path868" /><g
           id="g870"
           transform="translate(244.1963,237.6113)"><path
             d="m 0,0 v -10.709 h -2.396 v 16.53 h 0.19 L 8.24,-5.13 V 5.584 h 2.397 v -16.535 h -0.193 z"
             style="fill:#3f3f3f;fill-opacity:1;fill-rule:nonzero;stroke:none"
             id="path872" /></g><g
           id="g874"
           transform="translate(280.9521,240.9199)"><path
             d="M 0,0 H -4.84 V 2.275 H 7.404 V 0 H 2.564 V -14.018 H 0 Z"
             style="fill:#3f3f3f;fill-opacity:1;fill-rule:nonzero;stroke:none"
             id="path876" /></g><g
           id="g878"
           transform="translate(309.6602,243.1953)"><path
             d="M 0,0 H 10.375 V -2.275 H 2.564 V -6.949 H 9.487 V -9.175 H 2.564 v -4.843 h 8.145 v -2.275 H 0 Z"
             style="fill:#3f3f3f;fill-opacity:1;fill-rule:nonzero;stroke:none"
             id="path880" /></g><g
           id="g882"
           transform="translate(341.4746,243.1953)"><path
             d="m 0,0 h 2.564 v -14.018 h 7.188 v -2.275 H 0 Z"
             style="fill:#3f3f3f;fill-opacity:1;fill-rule:nonzero;stroke:none"
             id="path884" /></g><g
           id="g886"
           transform="translate(371.9268,243.1953)"><path
             d="m 0,0 h 2.562 v -14.018 h 7.189 v -2.275 H 0 Z"
             style="fill:#3f3f3f;fill-opacity:1;fill-rule:nonzero;stroke:none"
             id="path888" /></g><path
           d="m 402.447,243.195 h 2.564 v -16.293 h -2.564 z"
           style="fill:#3f3f3f;fill-opacity:1;fill-rule:nonzero;stroke:none"
           id="path890" /><g
           id="g892"
           transform="translate(425.9492,235.0488)"><path
             d="m 0,0 c 0,4.812 3.69,8.359 8.362,8.359 3.017,0 4.84,-1.078 6.181,-2.587 L 12.77,4.096 C 11.787,5.174 10.66,6.039 8.288,6.039 4.984,6.039 2.659,3.447 2.659,0 c 0,-3.452 2.35,-6.039 6.062,-6.039 1.773,0 3.017,0.405 3.955,1.033 v 3.279 H 8.313 v 2.276 h 6.734 V -6.232 C 13.68,-7.355 11.787,-8.364 8.721,-8.364 3.715,-8.364 0,-4.817 0,0"
             style="fill:#3f3f3f;fill-opacity:1;fill-rule:nonzero;stroke:none"
             id="path894" /></g><g
           id="g896"
           transform="translate(462.1738,243.1953)"><path
             d="M 0,0 H 10.375 V -2.275 H 2.564 V -6.949 H 9.489 V -9.175 H 2.564 v -4.843 h 8.147 v -2.275 H 0 Z"
             style="fill:#3f3f3f;fill-opacity:1;fill-rule:nonzero;stroke:none"
             id="path898" /></g><g
           id="g900"
           transform="translate(496.3848,237.6113)"><path
             d="m 0,0 v -10.709 h -2.395 v 16.53 h 0.192 L 8.243,-5.13 V 5.584 h 2.397 v -16.535 h -0.191 z"
             style="fill:#3f3f3f;fill-opacity:1;fill-rule:nonzero;stroke:none"
             id="path902" /></g><g
           id="g904"
           transform="translate(527.0244,235.0488)"><path
             d="m 0,0 c 0,4.812 3.665,8.359 8.313,8.359 3.016,0 5.104,-1.172 6.516,-3.161 L 12.865,3.809 C 11.787,5.268 10.397,6.039 8.243,6.039 5.008,6.039 2.659,3.447 2.659,0 c 0,-3.521 2.396,-6.039 5.678,-6.039 2.107,0 3.665,0.791 4.887,2.374 L 15.212,-5.03 C 13.535,-7.261 11.403,-8.364 8.243,-8.364 3.594,-8.364 0,-4.817 0,0"
             style="fill:#3f3f3f;fill-opacity:1;fill-rule:nonzero;stroke:none"
             id="path906" /></g><g
           id="g908"
           transform="translate(562.9395,243.1953)"><path
             d="M 0,0 H 10.372 V -2.275 H 2.563 V -6.949 H 9.486 V -9.175 H 2.563 v -4.843 h 8.146 v -2.275 H 0 Z"
             style="fill:#3f3f3f;fill-opacity:1;fill-rule:nonzero;stroke:none"
             id="path910" /></g></g></g></g></svg>
